<?xml version="1.0" encoding="UTF-8" standalone="no"?>
<!DOCTYPE svg PUBLIC "-//W3C//DTD SVG 1.1//EN"
 "http://www.w3.org/Graphics/SVG/1.1/DTD/svg11.dtd">
<!-- Generated by graphviz version 2.40.1 (20161225.0304)
 -->
<!-- Title: controllers_diagram Pages: 1 -->
<svg width="410pt" height="324pt"
 viewBox="0.00 0.00 410.38 324.00" xmlns="http://www.w3.org/2000/svg" xmlns:xlink="http://www.w3.org/1999/xlink">
<g id="graph0" class="graph" transform="scale(1 1) rotate(0) translate(4 320)">
<title>controllers_diagram</title>
<polygon fill="transparent" stroke="transparent" points="-4,4 -4,-320 406.3755,-320 406.3755,4 -4,4"/>
<!-- _diagram_info -->
<g id="node1" class="node">
<title>_diagram_info</title>
<text text-anchor="start" x="203" y="-58.6" font-family="Times,serif" font-size="13.00" fill="#000000">Controllers diagram</text>
<text text-anchor="start" x="203" y="-45.6" font-family="Times,serif" font-size="13.00" fill="#000000">Date: Sep 12 2017 &#45; 10:01</text>
<text text-anchor="start" x="203" y="-32.6" font-family="Times,serif" font-size="13.00" fill="#000000">Migration version: 20170908172206</text>
<text text-anchor="start" x="203" y="-19.6" font-family="Times,serif" font-size="13.00" fill="#000000">Generated by RailRoady 1.5.3</text>
<text text-anchor="start" x="203" y="-6.6" font-family="Times,serif" font-size="13.00" fill="#000000">http://railroady.prestonlee.com</text>
</g>
<!-- Api::V1::BaseController -->
<g id="node2" class="node">
<title>Api::V1::BaseController</title>
<path fill="none" stroke="#000000" d="M207,-105.5C207,-105.5 337.4277,-105.5 337.4277,-105.5 343.4277,-105.5 349.4277,-111.5 349.4277,-117.5 349.4277,-117.5 349.4277,-185.5 349.4277,-185.5 349.4277,-191.5 343.4277,-197.5 337.4277,-197.5 337.4277,-197.5 207,-197.5 207,-197.5 201,-197.5 195,-191.5 195,-185.5 195,-185.5 195,-117.5 195,-117.5 195,-111.5 201,-105.5 207,-105.5"/>
<text text-anchor="middle" x="272.2139" y="-182.3" font-family="Times,serif" font-size="14.00" fill="#000000">Api::V1::BaseController</text>
<polyline fill="none" stroke="#000000" points="195,-175.5 349.4277,-175.5 "/>
<polyline fill="none" stroke="#000000" points="195,-151.5 349.4277,-151.5 "/>
<polyline fill="none" stroke="#000000" points="195,-127.5 349.4277,-127.5 "/>
<text text-anchor="start" x="203" y="-112.3" font-family="Times,serif" font-size="14.00" fill="#000000">_layout</text>
</g>
<!-- Api::V1::ItemsController -->
<g id="node3" class="node">
<title>Api::V1::ItemsController</title>
<path fill="none" stroke="#000000" d="M12,-30.5C12,-30.5 146.3174,-30.5 146.3174,-30.5 152.3174,-30.5 158.3174,-36.5 158.3174,-42.5 158.3174,-42.5 158.3174,-164.5 158.3174,-164.5 158.3174,-170.5 152.3174,-176.5 146.3174,-176.5 146.3174,-176.5 12,-176.5 12,-176.5 6,-176.5 0,-170.5 0,-164.5 0,-164.5 0,-42.5 0,-42.5 0,-36.5 6,-30.5 12,-30.5"/>
<text text-anchor="middle" x="79.1587" y="-161.3" font-family="Times,serif" font-size="14.00" fill="#000000">Api::V1::ItemsController</text>
<polyline fill="none" stroke="#000000" points="0,-154.5 158.3174,-154.5 "/>
<text text-anchor="start" x="8" y="-139.3" font-family="Times,serif" font-size="14.00" fill="#000000">create</text>
<text text-anchor="start" x="8" y="-125.3" font-family="Times,serif" font-size="14.00" fill="#000000">destroy</text>
<text text-anchor="start" x="8" y="-111.3" font-family="Times,serif" font-size="14.00" fill="#000000">index</text>
<text text-anchor="start" x="8" y="-97.3" font-family="Times,serif" font-size="14.00" fill="#000000">update</text>
<polyline fill="none" stroke="#000000" points="0,-90.5 158.3174,-90.5 "/>
<polyline fill="none" stroke="#000000" points="0,-66.5 158.3174,-66.5 "/>
<text text-anchor="start" x="8" y="-51.3" font-family="Times,serif" font-size="14.00" fill="#000000">_layout</text>
<text text-anchor="start" x="8" y="-37.3" font-family="Times,serif" font-size="14.00" fill="#000000">item_params</text>
</g>
<!-- ApplicationController -->
<g id="node4" class="node">
<title>ApplicationController</title>
<path fill="none" stroke="#000000" d="M42,-210.5C42,-210.5 157.6416,-210.5 157.6416,-210.5 163.6416,-210.5 169.6416,-216.5 169.6416,-222.5 169.6416,-222.5 169.6416,-290.5 169.6416,-290.5 169.6416,-296.5 163.6416,-302.5 157.6416,-302.5 157.6416,-302.5 42,-302.5 42,-302.5 36,-302.5 30,-296.5 30,-290.5 30,-290.5 30,-222.5 30,-222.5 30,-216.5 36,-210.5 42,-210.5"/>
<text text-anchor="middle" x="99.8208" y="-287.3" font-family="Times,serif" font-size="14.00" fill="#000000">ApplicationController</text>
<polyline fill="none" stroke="#000000" points="30,-280.5 169.6416,-280.5 "/>
<polyline fill="none" stroke="#000000" points="30,-256.5 169.6416,-256.5 "/>
<polyline fill="none" stroke="#000000" points="30,-232.5 169.6416,-232.5 "/>
<text text-anchor="start" x="38" y="-217.3" font-family="Times,serif" font-size="14.00" fill="#000000">_layout</text>
</g>
<!-- SiteController -->
<g id="node5" class="node">
<title>SiteController</title>
<path fill="none" stroke="#000000" d="M222,-225.5C222,-225.5 293.3242,-225.5 293.3242,-225.5 299.3242,-225.5 305.3242,-231.5 305.3242,-237.5 305.3242,-237.5 305.3242,-303.5 305.3242,-303.5 305.3242,-309.5 299.3242,-315.5 293.3242,-315.5 293.3242,-315.5 222,-315.5 222,-315.5 216,-315.5 210,-309.5 210,-303.5 210,-303.5 210,-237.5 210,-237.5 210,-231.5 216,-225.5 222,-225.5"/>
<text text-anchor="middle" x="257.6621" y="-300.3" font-family="Times,serif" font-size="14.00" fill="#000000">SiteController</text>
<polyline fill="none" stroke="#000000" points="210,-293.5 305.3242,-293.5 "/>
<text text-anchor="start" x="218" y="-278.3" font-family="Times,serif" font-size="14.00" fill="#000000">index</text>
<polyline fill="none" stroke="#000000" points="210,-271.5 305.3242,-271.5 "/>
<polyline fill="none" stroke="#000000" points="210,-247.5 305.3242,-247.5 "/>
<text text-anchor="start" x="218" y="-232.3" font-family="Times,serif" font-size="14.00" fill="#000000">_layout</text>
</g>
</g>
</svg>
