<?xml version="1.0" encoding="UTF-8" standalone="no"?>
<!DOCTYPE svg PUBLIC "-//W3C//DTD SVG 1.1//EN"
 "http://www.w3.org/Graphics/SVG/1.1/DTD/svg11.dtd">
<!-- Generated by graphviz version 2.40.1 (20161225.0304)
 -->
<!-- Title: models_diagram Pages: 1 -->
<svg width="539pt" height="109pt"
 viewBox="0.00 0.00 539.19 109.00" xmlns="http://www.w3.org/2000/svg" xmlns:xlink="http://www.w3.org/1999/xlink">
<g id="graph0" class="graph" transform="scale(1 1) rotate(0) translate(4 105)">
<title>models_diagram</title>
<polygon fill="transparent" stroke="transparent" points="-4,4 -4,-105 535.1931,-105 535.1931,4 -4,4"/>
<!-- _diagram_info -->
<g id="node1" class="node">
<title>_diagram_info</title>
<text text-anchor="start" x="8" y="-72.6" font-family="Times,serif" font-size="13.00" fill="#000000">Models diagram</text>
<text text-anchor="start" x="8" y="-59.6" font-family="Times,serif" font-size="13.00" fill="#000000">Date: Sep 12 2017 &#45; 10:01</text>
<text text-anchor="start" x="8" y="-46.6" font-family="Times,serif" font-size="13.00" fill="#000000">Migration version: 20170908172206</text>
<text text-anchor="start" x="8" y="-33.6" font-family="Times,serif" font-size="13.00" fill="#000000">Generated by RailRoady 1.5.3</text>
<text text-anchor="start" x="8" y="-20.6" font-family="Times,serif" font-size="13.00" fill="#000000">http://railroady.prestonlee.com</text>
</g>
<!-- ApplicationRecord -->
<g id="node2" class="node">
<title>ApplicationRecord</title>
<ellipse fill="none" stroke="#000000" cx="302.6877" cy="-50.5" rx="77.2916" ry="18"/>
<text text-anchor="middle" x="302.6877" y="-46.3" font-family="Times,serif" font-size="14.00" fill="#000000">ApplicationRecord</text>
</g>
<!-- Item -->
<g id="node3" class="node">
<title>Item</title>
<path fill="none" stroke="#000000" d="M410.1824,-.5C410.1824,-.5 519.1931,-.5 519.1931,-.5 525.1931,-.5 531.1931,-6.5 531.1931,-12.5 531.1931,-12.5 531.1931,-88.5 531.1931,-88.5 531.1931,-94.5 525.1931,-100.5 519.1931,-100.5 519.1931,-100.5 410.1824,-100.5 410.1824,-100.5 404.1824,-100.5 398.1824,-94.5 398.1824,-88.5 398.1824,-88.5 398.1824,-12.5 398.1824,-12.5 398.1824,-6.5 404.1824,-.5 410.1824,-.5"/>
<text text-anchor="middle" x="464.6877" y="-85.3" font-family="Times,serif" font-size="14.00" fill="#000000">Item</text>
<polyline fill="none" stroke="#000000" points="398.1824,-78.5 531.1931,-78.5 "/>
<text text-anchor="start" x="406.1824" y="-63.3" font-family="Times,serif" font-size="14.00" fill="#000000">id :INTEGER</text>
<text text-anchor="start" x="406.1824" y="-49.3" font-family="Times,serif" font-size="14.00" fill="#000000">name :varchar</text>
<text text-anchor="start" x="406.1824" y="-35.3" font-family="Times,serif" font-size="14.00" fill="#000000">description :text</text>
<text text-anchor="start" x="406.1824" y="-21.3" font-family="Times,serif" font-size="14.00" fill="#000000">created_at :datetime</text>
<text text-anchor="start" x="406.1824" y="-7.3" font-family="Times,serif" font-size="14.00" fill="#000000">updated_at :datetime</text>
</g>
</g>
</svg>
